<mxfile host="app.diagrams.net" modified="2024-02-18T17:31:39.882Z" agent="Mozilla/5.0 (Macintosh; Intel Mac OS X 10.15; rv:122.0) Gecko/20100101 Firefox/122.0" etag="KLjYJJvcxVIO57s1CdGD" version="23.1.4" type="device">
  <diagram name="Page-1" id="FkeHTyMX6oCB0gRLYgU0">
    <mxGraphModel dx="2216" dy="956" grid="1" gridSize="10" guides="1" tooltips="1" connect="1" arrows="1" fold="1" page="1" pageScale="1" pageWidth="827" pageHeight="1169" math="0" shadow="0">
      <root>
        <mxCell id="0" />
        <mxCell id="1" parent="0" />
        <mxCell id="-PxC4uLa8Vwmn5Yqltxv-79" value="" style="rounded=0;whiteSpace=wrap;html=1;fillColor=none;dashed=1;" vertex="1" parent="1">
          <mxGeometry x="-120" y="30" width="1140" height="350" as="geometry" />
        </mxCell>
        <mxCell id="-PxC4uLa8Vwmn5Yqltxv-80" value="" style="rounded=0;whiteSpace=wrap;html=1;fillColor=none;dashed=1;" vertex="1" parent="1">
          <mxGeometry x="-120" y="570" width="1140" height="490" as="geometry" />
        </mxCell>
        <mxCell id="-PxC4uLa8Vwmn5Yqltxv-45" value="AI Processor" style="rounded=1;whiteSpace=wrap;html=1;verticalAlign=top;" vertex="1" parent="1">
          <mxGeometry x="720" y="619" width="160" height="301" as="geometry" />
        </mxCell>
        <mxCell id="-PxC4uLa8Vwmn5Yqltxv-64" style="edgeStyle=orthogonalEdgeStyle;rounded=0;orthogonalLoop=1;jettySize=auto;html=1;" edge="1" parent="1" source="-PxC4uLa8Vwmn5Yqltxv-34" target="-PxC4uLa8Vwmn5Yqltxv-42">
          <mxGeometry relative="1" as="geometry" />
        </mxCell>
        <mxCell id="-PxC4uLa8Vwmn5Yqltxv-34" value="Query pre-processing" style="rounded=1;whiteSpace=wrap;html=1;verticalAlign=top;" vertex="1" parent="1">
          <mxGeometry x="280" y="619" width="160" height="301" as="geometry" />
        </mxCell>
        <mxCell id="tOoIJYsqz6ZOaQAokwfT-3" value="" style="sketch=0;pointerEvents=1;shadow=0;dashed=0;html=1;strokeColor=none;fillColor=#505050;labelPosition=center;verticalLabelPosition=bottom;verticalAlign=top;outlineConnect=0;align=center;shape=mxgraph.office.devices.management_console;" parent="1" vertex="1">
          <mxGeometry x="30" y="750" width="50" height="42" as="geometry" />
        </mxCell>
        <mxCell id="tOoIJYsqz6ZOaQAokwfT-16" value="Chroma" style="text;html=1;align=center;verticalAlign=middle;resizable=0;points=[];autosize=1;strokeColor=none;fillColor=none;" parent="1" vertex="1">
          <mxGeometry x="554.9999999999999" y="470" width="70" height="30" as="geometry" />
        </mxCell>
        <mxCell id="tOoIJYsqz6ZOaQAokwfT-17" value="" style="group" parent="1" vertex="1" connectable="0">
          <mxGeometry x="40" y="225" width="50" height="60" as="geometry" />
        </mxCell>
        <mxCell id="tOoIJYsqz6ZOaQAokwfT-9" value="Patient&#39;s Info" style="html=1;verticalLabelPosition=bottom;align=center;labelBackgroundColor=#ffffff;verticalAlign=top;strokeWidth=2;strokeColor=#0080F0;shadow=0;dashed=0;shape=mxgraph.ios7.icons.documents;" parent="tOoIJYsqz6ZOaQAokwfT-17" vertex="1">
          <mxGeometry width="50" height="60" as="geometry" />
        </mxCell>
        <mxCell id="tOoIJYsqz6ZOaQAokwfT-12" value="" style="verticalLabelPosition=bottom;html=1;verticalAlign=top;align=center;strokeColor=none;fillColor=#00BEF2;shape=mxgraph.azure.health_monitoring;" parent="tOoIJYsqz6ZOaQAokwfT-17" vertex="1">
          <mxGeometry x="6" y="19" width="27" height="21" as="geometry" />
        </mxCell>
        <mxCell id="tOoIJYsqz6ZOaQAokwfT-18" value="" style="group" parent="1" vertex="1" connectable="0">
          <mxGeometry x="40" y="90" width="50" height="60" as="geometry" />
        </mxCell>
        <mxCell id="tOoIJYsqz6ZOaQAokwfT-6" value="Scientific&lt;br&gt;&lt;div&gt;Documents&lt;/div&gt;" style="html=1;verticalLabelPosition=bottom;align=center;labelBackgroundColor=#ffffff;verticalAlign=top;strokeWidth=2;strokeColor=#0080F0;shadow=0;dashed=0;shape=mxgraph.ios7.icons.documents;" parent="tOoIJYsqz6ZOaQAokwfT-18" vertex="1">
          <mxGeometry width="50" height="60" as="geometry" />
        </mxCell>
        <mxCell id="tOoIJYsqz6ZOaQAokwfT-13" value="" style="shape=mxgraph.signs.science.laboratory;html=1;pointerEvents=1;fillColor=#dae8fc;strokeColor=#6c8ebf;verticalLabelPosition=bottom;verticalAlign=top;align=center;" parent="tOoIJYsqz6ZOaQAokwfT-18" vertex="1">
          <mxGeometry x="10" y="22" width="20" height="19" as="geometry" />
        </mxCell>
        <mxCell id="-PxC4uLa8Vwmn5Yqltxv-71" style="edgeStyle=orthogonalEdgeStyle;rounded=0;orthogonalLoop=1;jettySize=auto;html=1;" edge="1" parent="1" source="tOoIJYsqz6ZOaQAokwfT-20" target="-PxC4uLa8Vwmn5Yqltxv-34">
          <mxGeometry relative="1" as="geometry">
            <Array as="points">
              <mxPoint x="210" y="770" />
              <mxPoint x="210" y="770" />
            </Array>
          </mxGeometry>
        </mxCell>
        <mxCell id="tOoIJYsqz6ZOaQAokwfT-20" value="" style="aspect=fixed;sketch=0;html=1;dashed=0;whitespace=wrap;fillColor=#2875E2;strokeColor=#ffffff;points=[[0.005,0.63,0],[0.1,0.2,0],[0.9,0.2,0],[0.5,0,0],[0.995,0.63,0],[0.72,0.99,0],[0.5,1,0],[0.28,0.99,0]];shape=mxgraph.kubernetes.icon2;prIcon=api" parent="1" vertex="1">
          <mxGeometry x="146.10999999999999" y="750" width="42.71" height="41" as="geometry" />
        </mxCell>
        <mxCell id="tOoIJYsqz6ZOaQAokwfT-31" value="&lt;div&gt;Answer&lt;/div&gt;" style="sketch=0;aspect=fixed;pointerEvents=1;shadow=0;dashed=0;html=1;strokeColor=none;labelPosition=center;verticalLabelPosition=bottom;verticalAlign=top;align=center;fillColor=#000000;shape=mxgraph.mscae.enterprise.document" parent="1" vertex="1">
          <mxGeometry x="570" y="950" width="40" height="50" as="geometry" />
        </mxCell>
        <mxCell id="tOoIJYsqz6ZOaQAokwfT-37" value="User" style="text;html=1;align=center;verticalAlign=middle;resizable=0;points=[];autosize=1;strokeColor=none;fillColor=none;" parent="1" vertex="1">
          <mxGeometry x="30" y="789.5" width="50" height="30" as="geometry" />
        </mxCell>
        <mxCell id="tOoIJYsqz6ZOaQAokwfT-38" value="Interface" style="text;html=1;align=center;verticalAlign=middle;resizable=0;points=[];autosize=1;strokeColor=none;fillColor=none;" parent="1" vertex="1">
          <mxGeometry x="132.45999999999998" y="791" width="70" height="30" as="geometry" />
        </mxCell>
        <mxCell id="-PxC4uLa8Vwmn5Yqltxv-2" value="" style="shape=image;verticalLabelPosition=bottom;labelBackgroundColor=default;verticalAlign=top;aspect=fixed;imageAspect=0;image=https://www.trychroma.com/chroma-logo.png;" vertex="1" parent="1">
          <mxGeometry x="562.43" y="440" width="60.15" height="40" as="geometry" />
        </mxCell>
        <mxCell id="-PxC4uLa8Vwmn5Yqltxv-55" style="edgeStyle=orthogonalEdgeStyle;rounded=0;orthogonalLoop=1;jettySize=auto;html=1;" edge="1" parent="1" source="-PxC4uLa8Vwmn5Yqltxv-3" target="-PxC4uLa8Vwmn5Yqltxv-10">
          <mxGeometry relative="1" as="geometry" />
        </mxCell>
        <mxCell id="-PxC4uLa8Vwmn5Yqltxv-3" value="Indexing" style="rounded=1;whiteSpace=wrap;html=1;verticalAlign=top;" vertex="1" parent="1">
          <mxGeometry x="160" y="80" width="160" height="240" as="geometry" />
        </mxCell>
        <mxCell id="-PxC4uLa8Vwmn5Yqltxv-4" value="PDF Processor" style="rounded=1;whiteSpace=wrap;html=1;verticalAlign=top;" vertex="1" parent="1">
          <mxGeometry x="178.4" y="120" width="120" height="100" as="geometry" />
        </mxCell>
        <mxCell id="-PxC4uLa8Vwmn5Yqltxv-5" value="Text Processor" style="rounded=1;whiteSpace=wrap;html=1;" vertex="1" parent="1">
          <mxGeometry x="178.4" y="245" width="120" height="40" as="geometry" />
        </mxCell>
        <mxCell id="-PxC4uLa8Vwmn5Yqltxv-16" style="edgeStyle=orthogonalEdgeStyle;rounded=0;orthogonalLoop=1;jettySize=auto;html=1;" edge="1" parent="1" source="-PxC4uLa8Vwmn5Yqltxv-10" target="-PxC4uLa8Vwmn5Yqltxv-15">
          <mxGeometry relative="1" as="geometry" />
        </mxCell>
        <mxCell id="-PxC4uLa8Vwmn5Yqltxv-10" value="Enrichment" style="rounded=1;whiteSpace=wrap;html=1;verticalAlign=top;" vertex="1" parent="1">
          <mxGeometry x="400" y="80" width="160" height="240" as="geometry" />
        </mxCell>
        <mxCell id="-PxC4uLa8Vwmn5Yqltxv-13" value="KeyBERT" style="rounded=1;whiteSpace=wrap;html=1;" vertex="1" parent="1">
          <mxGeometry x="435" y="120" width="90" height="50" as="geometry" />
        </mxCell>
        <mxCell id="-PxC4uLa8Vwmn5Yqltxv-56" style="edgeStyle=orthogonalEdgeStyle;rounded=0;orthogonalLoop=1;jettySize=auto;html=1;entryX=0.5;entryY=0;entryDx=0;entryDy=0;" edge="1" parent="1" source="-PxC4uLa8Vwmn5Yqltxv-15" target="-PxC4uLa8Vwmn5Yqltxv-2">
          <mxGeometry relative="1" as="geometry">
            <Array as="points">
              <mxPoint x="720" y="360" />
              <mxPoint x="593" y="360" />
              <mxPoint x="593" y="400" />
            </Array>
          </mxGeometry>
        </mxCell>
        <mxCell id="-PxC4uLa8Vwmn5Yqltxv-15" value="Embeddings" style="rounded=1;whiteSpace=wrap;html=1;verticalAlign=top;" vertex="1" parent="1">
          <mxGeometry x="640" y="80" width="160" height="240" as="geometry" />
        </mxCell>
        <mxCell id="-PxC4uLa8Vwmn5Yqltxv-27" value="Filtering" style="rounded=1;whiteSpace=wrap;html=1;verticalAlign=top;" vertex="1" parent="1">
          <mxGeometry x="300" y="660" width="120" height="110" as="geometry" />
        </mxCell>
        <mxCell id="-PxC4uLa8Vwmn5Yqltxv-31" value="" style="shape=image;verticalLabelPosition=bottom;labelBackgroundColor=default;verticalAlign=top;aspect=fixed;imageAspect=0;image=https://tika.apache.org/tika.png;" vertex="1" parent="1">
          <mxGeometry x="194.6" y="160" width="87.6" height="30" as="geometry" />
        </mxCell>
        <mxCell id="-PxC4uLa8Vwmn5Yqltxv-33" value="Prompt Engineering" style="rounded=1;whiteSpace=wrap;html=1;" vertex="1" parent="1">
          <mxGeometry x="740" y="660" width="120" height="40" as="geometry" />
        </mxCell>
        <mxCell id="-PxC4uLa8Vwmn5Yqltxv-74" style="edgeStyle=orthogonalEdgeStyle;rounded=0;orthogonalLoop=1;jettySize=auto;html=1;entryX=0.559;entryY=1.04;entryDx=0;entryDy=0;entryPerimeter=0;" edge="1" parent="1" source="-PxC4uLa8Vwmn5Yqltxv-41" target="tOoIJYsqz6ZOaQAokwfT-16">
          <mxGeometry relative="1" as="geometry">
            <Array as="points">
              <mxPoint x="594" y="560" />
              <mxPoint x="594" y="560" />
            </Array>
          </mxGeometry>
        </mxCell>
        <mxCell id="-PxC4uLa8Vwmn5Yqltxv-41" value="" style="verticalLabelPosition=bottom;html=1;verticalAlign=top;align=center;strokeColor=none;fillColor=#00BEF2;shape=mxgraph.azure.cloud_service_package_file;" vertex="1" parent="1">
          <mxGeometry x="570" y="584" width="42.5" height="41" as="geometry" />
        </mxCell>
        <mxCell id="-PxC4uLa8Vwmn5Yqltxv-51" style="edgeStyle=orthogonalEdgeStyle;rounded=0;orthogonalLoop=1;jettySize=auto;html=1;entryX=0;entryY=0.5;entryDx=0;entryDy=0;" edge="1" parent="1" source="-PxC4uLa8Vwmn5Yqltxv-42" target="-PxC4uLa8Vwmn5Yqltxv-45">
          <mxGeometry relative="1" as="geometry" />
        </mxCell>
        <mxCell id="-PxC4uLa8Vwmn5Yqltxv-65" style="edgeStyle=orthogonalEdgeStyle;rounded=0;orthogonalLoop=1;jettySize=auto;html=1;entryX=0.494;entryY=1.108;entryDx=0;entryDy=0;entryPerimeter=0;" edge="1" parent="1" source="-PxC4uLa8Vwmn5Yqltxv-42" target="-PxC4uLa8Vwmn5Yqltxv-73">
          <mxGeometry relative="1" as="geometry">
            <mxPoint x="546" y="630" as="targetPoint" />
            <Array as="points">
              <mxPoint x="591" y="700" />
              <mxPoint x="591" y="700" />
            </Array>
          </mxGeometry>
        </mxCell>
        <mxCell id="-PxC4uLa8Vwmn5Yqltxv-42" value="Database interface" style="rounded=1;whiteSpace=wrap;html=1;" vertex="1" parent="1">
          <mxGeometry x="520" y="749.5" width="120" height="40" as="geometry" />
        </mxCell>
        <mxCell id="-PxC4uLa8Vwmn5Yqltxv-44" value="&lt;div&gt;&lt;br&gt;&lt;/div&gt;&lt;div&gt;&lt;br&gt;&lt;/div&gt;&lt;div&gt;&lt;br&gt;&lt;/div&gt;&lt;div&gt;&lt;br&gt;&lt;/div&gt;" style="text;html=1;align=center;verticalAlign=middle;resizable=0;points=[];autosize=1;strokeColor=none;fillColor=none;" vertex="1" parent="1">
          <mxGeometry x="780" y="598" width="20" height="70" as="geometry" />
        </mxCell>
        <mxCell id="-PxC4uLa8Vwmn5Yqltxv-46" value="" style="image;aspect=fixed;html=1;points=[];align=center;fontSize=12;image=img/lib/azure2/ai_machine_learning/Language_Services.svg;" vertex="1" parent="1">
          <mxGeometry x="698.75" y="120" width="40" height="40" as="geometry" />
        </mxCell>
        <mxCell id="-PxC4uLa8Vwmn5Yqltxv-53" value="LLM" style="text;html=1;align=center;verticalAlign=middle;resizable=0;points=[];autosize=1;strokeColor=none;fillColor=none;" vertex="1" parent="1">
          <mxGeometry x="691.2499999999999" y="160" width="50" height="30" as="geometry" />
        </mxCell>
        <mxCell id="-PxC4uLa8Vwmn5Yqltxv-57" style="edgeStyle=orthogonalEdgeStyle;rounded=0;orthogonalLoop=1;jettySize=auto;html=1;" edge="1" parent="1" source="tOoIJYsqz6ZOaQAokwfT-9" target="-PxC4uLa8Vwmn5Yqltxv-3">
          <mxGeometry relative="1" as="geometry">
            <Array as="points">
              <mxPoint x="120" y="250" />
              <mxPoint x="120" y="200" />
            </Array>
          </mxGeometry>
        </mxCell>
        <mxCell id="-PxC4uLa8Vwmn5Yqltxv-58" style="edgeStyle=orthogonalEdgeStyle;rounded=0;orthogonalLoop=1;jettySize=auto;html=1;exitX=1.062;exitY=0.51;exitDx=0;exitDy=0;exitPerimeter=0;" edge="1" parent="1" source="tOoIJYsqz6ZOaQAokwfT-6" target="-PxC4uLa8Vwmn5Yqltxv-3">
          <mxGeometry relative="1" as="geometry">
            <mxPoint x="100" y="100" as="sourcePoint" />
            <Array as="points">
              <mxPoint x="120" y="121" />
              <mxPoint x="120" y="200" />
            </Array>
          </mxGeometry>
        </mxCell>
        <mxCell id="-PxC4uLa8Vwmn5Yqltxv-60" value="KeyBERT" style="rounded=1;whiteSpace=wrap;html=1;" vertex="1" parent="1">
          <mxGeometry x="315" y="690" width="90" height="50" as="geometry" />
        </mxCell>
        <mxCell id="-PxC4uLa8Vwmn5Yqltxv-61" value="Embeddings" style="rounded=1;whiteSpace=wrap;html=1;verticalAlign=top;" vertex="1" parent="1">
          <mxGeometry x="298.4" y="791" width="121.6" height="109" as="geometry" />
        </mxCell>
        <mxCell id="-PxC4uLa8Vwmn5Yqltxv-62" value="" style="image;aspect=fixed;html=1;points=[];align=center;fontSize=12;image=img/lib/azure2/ai_machine_learning/Language_Services.svg;" vertex="1" parent="1">
          <mxGeometry x="339.2" y="831" width="40" height="40" as="geometry" />
        </mxCell>
        <mxCell id="-PxC4uLa8Vwmn5Yqltxv-63" value="LLM" style="text;html=1;align=center;verticalAlign=middle;resizable=0;points=[];autosize=1;strokeColor=none;fillColor=none;" vertex="1" parent="1">
          <mxGeometry x="334.1999999999999" y="871" width="50" height="30" as="geometry" />
        </mxCell>
        <mxCell id="-PxC4uLa8Vwmn5Yqltxv-66" value="LLM query" style="rounded=1;whiteSpace=wrap;html=1;verticalAlign=top;" vertex="1" parent="1">
          <mxGeometry x="738.4" y="721" width="121.6" height="109" as="geometry" />
        </mxCell>
        <mxCell id="-PxC4uLa8Vwmn5Yqltxv-67" value="" style="image;aspect=fixed;html=1;points=[];align=center;fontSize=12;image=img/lib/azure2/ai_machine_learning/Language_Services.svg;" vertex="1" parent="1">
          <mxGeometry x="779.2" y="761" width="40" height="40" as="geometry" />
        </mxCell>
        <mxCell id="-PxC4uLa8Vwmn5Yqltxv-68" value="LLM" style="text;html=1;align=center;verticalAlign=middle;resizable=0;points=[];autosize=1;strokeColor=none;fillColor=none;" vertex="1" parent="1">
          <mxGeometry x="774.1999999999998" y="801" width="50" height="30" as="geometry" />
        </mxCell>
        <mxCell id="-PxC4uLa8Vwmn5Yqltxv-72" style="edgeStyle=orthogonalEdgeStyle;rounded=0;orthogonalLoop=1;jettySize=auto;html=1;entryX=0.005;entryY=0.63;entryDx=0;entryDy=0;entryPerimeter=0;" edge="1" parent="1" source="tOoIJYsqz6ZOaQAokwfT-3" target="tOoIJYsqz6ZOaQAokwfT-20">
          <mxGeometry relative="1" as="geometry">
            <Array as="points">
              <mxPoint x="100" y="776" />
              <mxPoint x="100" y="776" />
            </Array>
          </mxGeometry>
        </mxCell>
        <mxCell id="-PxC4uLa8Vwmn5Yqltxv-73" value="&lt;div&gt;Filters&lt;/div&gt;&lt;div&gt;+&lt;/div&gt;&lt;div&gt;Embeddings&lt;br&gt;&lt;/div&gt;" style="text;html=1;align=center;verticalAlign=middle;resizable=0;points=[];autosize=1;strokeColor=none;fillColor=none;" vertex="1" parent="1">
          <mxGeometry x="546.25" y="625" width="90" height="60" as="geometry" />
        </mxCell>
        <mxCell id="-PxC4uLa8Vwmn5Yqltxv-77" style="edgeStyle=orthogonalEdgeStyle;rounded=0;orthogonalLoop=1;jettySize=auto;html=1;entryX=1;entryY=0.5;entryDx=0;entryDy=0;entryPerimeter=0;" edge="1" parent="1" source="-PxC4uLa8Vwmn5Yqltxv-45" target="tOoIJYsqz6ZOaQAokwfT-31">
          <mxGeometry relative="1" as="geometry">
            <Array as="points">
              <mxPoint x="800" y="975" />
            </Array>
          </mxGeometry>
        </mxCell>
        <mxCell id="-PxC4uLa8Vwmn5Yqltxv-78" style="edgeStyle=orthogonalEdgeStyle;rounded=0;orthogonalLoop=1;jettySize=auto;html=1;entryX=0.489;entryY=1.071;entryDx=0;entryDy=0;entryPerimeter=0;" edge="1" parent="1" source="tOoIJYsqz6ZOaQAokwfT-31" target="tOoIJYsqz6ZOaQAokwfT-38">
          <mxGeometry relative="1" as="geometry" />
        </mxCell>
        <mxCell id="-PxC4uLa8Vwmn5Yqltxv-81" value="Offline" style="text;html=1;align=left;verticalAlign=middle;resizable=0;points=[];autosize=1;strokeColor=none;fillColor=none;" vertex="1" parent="1">
          <mxGeometry x="-120" y="10" width="60" height="30" as="geometry" />
        </mxCell>
        <mxCell id="-PxC4uLa8Vwmn5Yqltxv-82" value="Online" style="text;html=1;align=left;verticalAlign=middle;resizable=0;points=[];autosize=1;strokeColor=none;fillColor=none;" vertex="1" parent="1">
          <mxGeometry x="-120" y="550" width="60" height="30" as="geometry" />
        </mxCell>
        <mxCell id="-PxC4uLa8Vwmn5Yqltxv-83" value="store" style="text;html=1;align=center;verticalAlign=middle;resizable=0;points=[];autosize=1;strokeColor=none;fillColor=none;" vertex="1" parent="1">
          <mxGeometry x="641.25" y="340" width="50" height="30" as="geometry" />
        </mxCell>
        <mxCell id="-PxC4uLa8Vwmn5Yqltxv-84" value="retrieve" style="text;html=1;align=center;verticalAlign=middle;resizable=0;points=[];autosize=1;strokeColor=none;fillColor=none;" vertex="1" parent="1">
          <mxGeometry x="590" y="530" width="60" height="30" as="geometry" />
        </mxCell>
        <mxCell id="-PxC4uLa8Vwmn5Yqltxv-85" value="DB creation" style="text;html=1;align=left;verticalAlign=middle;resizable=0;points=[];autosize=1;strokeColor=none;fillColor=none;" vertex="1" parent="1">
          <mxGeometry x="-120" y="170" width="90" height="30" as="geometry" />
        </mxCell>
        <mxCell id="-PxC4uLa8Vwmn5Yqltxv-86" value="&lt;div&gt;Usage&lt;/div&gt;" style="text;html=1;align=left;verticalAlign=middle;resizable=0;points=[];autosize=1;strokeColor=none;fillColor=none;" vertex="1" parent="1">
          <mxGeometry x="-120" y="754.5" width="60" height="30" as="geometry" />
        </mxCell>
      </root>
    </mxGraphModel>
  </diagram>
</mxfile>
